<svg xmlns="http://www.w3.org/2000/svg" xmlns:v="https://svgstorm.com"
viewBox = "0 0 1000 924"
width="1000"
height="924">
<g fill="None" fill-opacity="0.0" stroke="#FEFEFE" stroke-opacity="1.00" stroke-width="0.3"><path d="
M 0.00 924.00 
L 1000.00 924.00
L 1000.00 0.00
L 0.00 0.00
L 0.00 924.00
M 764.00 381.00 
C 788.23 370.91 810.57 356.12 835.00 347.00
C 815.36 360.68 796.11 372.85 773.77 382.77 C 751.43 392.70 742.45 414.82 728.23 434.23 C 714.01 453.64 703.20 472.25 688.08 492.08 C 672.96 511.91 658.08 531.39 657.00 558.00 C 655.92 584.61 646.45 615.52 644.22 642.22 C 641.99 668.93 633.60 697.33 626.07 722.07 C 618.55 746.82 608.94 768.35 598.23 791.23 C 587.51 814.11 581.81 837.88 567.00 858.00
C 565.41 854.79 565.47 850.20 567.00 847.00
C 568.71 858.21 572.94 842.99 575.77 836.77 C 578.60 830.55 581.78 821.57 584.78 814.78 C 587.77 807.98 591.18 800.13 593.92 792.92 C 596.67 785.72 599.98 778.26 602.92 770.92 C 605.87 763.59 608.75 756.24 611.78 748.78 C 614.80 741.31 617.18 733.69 619.98 725.98 C 622.77 718.26 625.96 711.03 627.78 702.78 C 629.59 694.52 632.17 686.31 633.78 677.78 C 635.38 669.24 636.51 659.74 637.99 650.99 C 639.47 642.24 640.74 632.90 641.98 623.98 C 643.21 615.06 644.76 605.87 645.93 596.93 C 647.09 587.98 648.57 578.60 649.78 569.78 C 650.98 560.96 653.10 551.06 652.00 543.00
C 639.53 560.21 629.91 579.63 615.00 595.00
C 626.32 568.79 649.46 553.88 655.99 524.99 C 662.53 496.10 666.86 459.66 673.00 430.00
C 647.64 440.60 621.65 451.51 596.32 462.32 C 570.99 473.13 543.43 483.74 518.31 494.31 C 493.18 504.88 464.71 511.51 448.00 534.00
C 473.46 536.94 495.62 520.03 519.00 513.00
C 508.98 517.66 499.44 525.69 487.92 527.92 C 476.41 530.15 463.97 541.29 451.00 538.00 C 438.03 534.71 453.24 519.27 462.23 515.23 C 471.22 511.19 483.23 503.27 493.68 499.68 C 504.12 496.09 516.25 490.08 527.07 486.07 C 537.89 482.07 548.59 476.79 559.68 472.68 C 570.77 468.56 581.34 462.89 592.69 458.69 C 604.05 454.50 613.84 448.67 625.68 444.68 C 637.51 440.69 644.63 433.94 657.69 430.69 C 670.76 427.45 677.35 417.67 678.33 404.33 C 679.31 390.99 685.08 378.81 687.00 366.00 C 688.91 353.18 694.24 342.27 696.93 329.93 C 699.61 317.58 703.93 305.26 707.32 293.32 C 710.71 281.39 715.07 269.42 718.93 257.93 C 722.79 246.43 726.32 234.75 730.93 223.93 C 735.53 213.10 740.18 202.01 746.30 192.30 C 752.43 182.60 759.95 174.89 768.75 167.75 C 777.55 160.61 786.87 154.99 796.70 149.69 C 806.52 144.40 821.95 137.55 832.08 145.92 C 842.20 154.30 844.07 168.40 844.00 181.00 C 843.93 193.60 840.17 208.73 838.01 221.01 C 835.84 233.28 830.97 245.65 827.22 257.22 C 823.48 268.80 818.23 279.46 813.23 290.23 C 808.23 301.00 803.93 310.95 798.08 321.08 C 792.23 331.21 786.80 341.02 781.08 351.08 C 775.35 361.14 769.51 370.85 764.00 381.00
M 409.00 372.00 
C 405.82 375.72 400.74 379.21 398.00 383.00
C 391.41 393.75 392.48 407.94 389.00 420.00 C 385.53 432.06 382.77 444.65 380.22 457.22 C 377.67 469.79 374.25 483.25 372.02 496.02 C 369.79 508.80 364.56 520.70 364.01 534.01 C 363.46 547.32 370.59 560.65 369.00 575.00 C 367.41 589.35 368.18 604.46 365.67 618.67 C 363.16 632.88 361.97 644.25 360.00 659.00 C 358.03 673.75 355.34 684.42 356.00 701.00 C 356.66 717.58 371.34 702.19 377.77 693.77 C 384.20 685.35 392.83 677.83 398.75 668.75 C 404.68 659.68 411.39 650.66 417.25 641.25 C 423.12 631.84 428.52 620.87 434.31 611.31 C 440.09 601.74 444.58 590.84 450.31 581.31 C 456.03 571.77 459.59 557.41 469.00 553.00
C 459.82 589.14 444.66 623.95 442.00 662.00
C 448.38 658.48 452.62 652.12 457.25 646.25 C 461.87 640.38 465.98 634.69 470.25 628.25 C 474.53 621.82 478.85 615.86 482.77 608.77 C 486.69 601.68 488.49 594.18 490.98 585.98 C 493.47 577.77 496.18 570.85 498.98 561.98 C 501.77 553.10 504.47 549.54 506.98 538.98 C 509.49 528.41 518.25 528.72 514.67 539.67 C 511.09 550.62 510.66 554.84 507.07 564.07 C 503.49 573.31 502.43 578.22 498.68 586.68 C 494.92 595.14 492.50 601.05 490.02 610.02 C 487.55 619.00 487.43 626.44 485.02 636.02 C 482.62 645.60 486.91 657.85 494.75 649.75 C 502.59 641.65 503.39 640.23 509.25 633.25 C 515.10 626.27 518.30 622.83 523.25 616.25 C 528.20 609.67 532.00 604.15 536.75 597.75 C 541.51 591.36 544.05 584.92 548.31 578.31 C 552.56 571.69 555.63 563.95 558.92 556.92 C 562.22 549.90 564.63 542.01 568.31 535.31 C 571.99 528.60 573.52 517.74 581.00 516.00
C 581.08 526.33 574.32 532.67 571.23 542.23 C 568.14 551.79 563.82 557.10 560.22 567.22 C 556.63 577.35 553.40 581.80 551.22 594.22 C 549.05 606.64 561.78 599.60 565.92 590.92 C 570.06 582.24 576.34 576.85 580.92 568.92 C 585.50 560.98 590.90 552.98 591.99 543.99 C 593.08 535.00 600.60 526.41 602.31 518.31 C 604.01 510.20 616.78 498.75 615.02 509.03 C 613.26 519.30 606.19 524.13 603.70 533.69 C 601.20 543.26 593.38 550.52 594.00 561.00
C 600.15 557.35 602.92 551.08 606.77 545.77 C 610.62 540.46 611.89 530.90 618.00 529.00
C 616.74 537.95 610.81 545.47 608.00 554.00
C 609.24 556.92 612.79 551.99 614.00 555.00
C 610.35 559.20 605.26 556.41 601.75 560.75 C 598.25 565.10 593.64 566.69 589.00 564.00
C 581.71 578.57 571.50 593.00 560.25 605.25 C 549.00 617.50 543.04 598.20 547.00 591.00
C 541.07 598.57 534.68 609.16 528.75 616.75 C 522.81 624.33 514.91 635.25 508.75 641.75 C 502.60 648.25 492.50 664.64 483.25 656.75 C 474.01 648.85 484.03 627.70 482.00 619.00
C 478.10 624.20 473.60 631.85 469.70 636.70 C 465.79 641.54 460.67 650.16 457.08 654.08 C 453.50 658.00 445.04 670.76 439.78 666.22 C 434.52 661.68 439.75 646.91 440.00 640.00 C 440.25 633.09 444.54 623.46 445.98 615.98 C 447.41 608.49 450.86 598.84 452.00 591.00
C 444.47 602.26 437.83 616.25 431.08 628.08 C 424.32 639.90 415.58 652.47 408.70 663.70 C 401.81 674.92 389.87 685.91 383.08 696.08 C 376.29 706.25 356.34 724.69 352.01 706.99 C 347.68 689.30 353.93 671.26 355.00 654.00 C 356.07 636.74 361.90 620.50 362.00 603.00 C 362.10 585.50 368.13 566.04 360.00 550.00
C 352.79 581.33 343.90 616.17 333.07 646.07 C 322.24 675.98 310.70 703.24 291.75 728.75 C 272.80 754.26 255.12 772.16 227.31 788.31 C 199.49 804.45 151.44 787.61 157.00 748.00
C 156.63 744.23 156.64 739.71 157.00 736.00
C 157.00 697.86 179.21 658.05 195.92 625.92 C 212.64 593.80 235.17 567.45 261.25 542.25 C 287.33 517.05 333.35 491.80 360.00 527.00
C 368.86 481.81 379.49 437.06 389.00 392.00
C 381.81 397.40 375.52 402.62 368.75 408.75 C 361.98 414.89 354.88 419.82 347.92 425.92 C 340.96 432.02 334.11 435.60 326.77 441.77 C 319.43 447.94 311.03 449.88 302.92 455.92 C 294.82 461.97 279.72 461.77 285.93 449.93 C 292.13 438.08 294.35 437.04 304.00 430.00
C 297.29 437.86 286.52 446.08 287.00 458.00
C 304.32 454.86 317.04 443.02 331.75 433.75 C 346.45 424.48 355.46 412.53 370.25 402.25 C 385.04 391.97 394.65 378.23 397.33 360.33 C 400.00 342.43 408.43 323.16 412.98 305.98 C 417.52 288.79 425.78 271.52 431.32 255.32 C 436.86 239.12 446.22 222.08 453.77 207.77 C 461.32 193.46 471.74 177.79 481.75 166.75 C 491.77 155.72 512.57 135.92 524.75 150.25 C 536.93 164.57 528.52 192.85 525.02 209.02 C 521.53 225.20 511.51 243.06 503.70 257.70 C 495.88 272.33 485.64 285.55 475.75 298.75 C 465.87 311.96 454.85 324.51 443.75 336.75 C 432.64 348.98 420.46 359.20 409.25 371.25 Z"/>
</g>
<g fill="None" fill-opacity="0.0" stroke="#393C8A" stroke-opacity="1.00" stroke-width="0.3"><path d="
M 764.00 381.00 
C 769.51 370.85 775.35 361.14 781.08 351.08 C 786.80 341.02 792.23 331.21 798.08 321.08 C 803.93 310.95 808.23 301.00 813.23 290.23 C 818.23 279.46 823.48 268.80 827.22 257.22 C 830.97 245.65 835.84 233.28 838.01 221.01 C 840.17 208.73 843.93 193.60 844.00 181.00 C 844.07 168.40 842.20 154.30 832.08 145.92 C 821.95 137.55 806.52 144.40 796.70 149.69 C 786.87 154.99 777.55 160.61 768.75 167.75 C 759.95 174.89 752.43 182.60 746.30 192.30 C 740.18 202.01 735.53 213.10 730.93 223.93 C 726.32 234.75 722.79 246.43 718.93 257.93 C 715.07 269.42 710.71 281.39 707.32 293.32 C 703.93 305.26 699.61 317.58 696.93 329.93 C 694.24 342.27 688.91 353.18 687.00 366.00 C 685.08 378.81 679.31 390.99 678.33 404.33 C 677.35 417.67 670.76 427.45 657.69 430.69 C 644.63 433.94 637.51 440.69 625.68 444.68 C 613.84 448.67 604.05 454.50 592.69 458.69 C 581.34 462.89 570.77 468.56 559.68 472.68 C 548.59 476.79 537.89 482.07 527.07 486.07 C 516.25 490.08 504.12 496.09 493.68 499.68 C 483.23 503.27 471.22 511.19 462.23 515.23 C 453.24 519.27 438.03 534.71 451.00 538.00 C 463.97 541.29 476.41 530.15 487.92 527.92 C 499.44 525.69 508.98 517.66 519.00 513.00
C 495.62 520.03 473.46 536.94 448.00 534.00
C 464.71 511.51 493.18 504.88 518.31 494.31 C 543.43 483.74 570.99 473.13 596.32 462.32 C 621.65 451.51 647.64 440.60 673.00 430.00
C 666.86 459.66 662.53 496.10 655.99 524.99 C 649.46 553.88 626.32 568.79 615.00 595.00
C 629.91 579.63 639.53 560.21 652.00 543.00
C 653.10 551.06 650.98 560.96 649.78 569.78 C 648.57 578.60 647.09 587.98 645.93 596.93 C 644.76 605.87 643.21 615.06 641.98 623.98 C 640.74 632.90 639.47 642.24 637.99 650.99 C 636.51 659.74 635.38 669.24 633.78 677.78 C 632.17 686.31 629.59 694.52 627.78 702.78 C 625.96 711.03 622.77 718.26 619.98 725.98 C 617.18 733.69 614.80 741.31 611.78 748.78 C 608.75 756.24 605.87 763.59 602.92 770.92 C 599.98 778.26 596.67 785.72 593.92 792.92 C 591.18 800.13 587.77 807.98 584.78 814.78 C 581.78 821.57 578.60 830.55 575.77 836.77 C 572.94 842.99 568.71 858.21 567.00 847.00
C 565.47 850.20 565.41 854.79 567.00 858.00
C 581.81 837.88 587.51 814.11 598.23 791.23 C 608.94 768.35 618.55 746.82 626.07 722.07 C 633.60 697.33 641.99 668.93 644.22 642.22 C 646.45 615.52 655.92 584.61 657.00 558.00 C 658.08 531.39 672.96 511.91 688.08 492.08 C 703.20 472.25 714.01 453.64 728.23 434.23 C 742.45 414.82 751.43 392.70 773.77 382.77 C 796.11 372.85 815.36 360.68 835.00 347.00
C 810.57 356.12 788.23 370.91 764.00 381.00
M 681.00 420.00 
C 683.65 400.41 689.42 379.87 693.93 360.93 C 698.43 341.98 703.93 322.31 708.98 303.98 C 714.03 285.65 721.40 267.27 726.78 249.78 C 732.16 232.29 739.82 214.13 747.75 198.75 C 755.69 183.38 769.76 170.67 783.08 162.08 C 796.41 153.50 820.65 136.03 833.75 152.25 C 846.85 168.46 838.14 195.47 835.67 213.67 C 833.20 231.87 825.08 251.72 819.07 269.07 C 813.07 286.42 803.45 301.06 795.70 317.69 C 787.94 334.33 777.18 346.55 769.70 363.70 C 762.21 380.85 748.64 391.00 730.92 396.92 C 713.21 402.85 698.55 413.85 681.00 420.00
M 751.00 394.00 
C 723.04 437.62 692.17 479.92 663.00 523.00
C 663.57 509.21 665.92 491.76 669.78 477.78 C 673.64 463.79 673.10 444.00 678.00 431.00 C 682.89 417.99 702.59 418.66 713.08 411.08 C 723.57 403.49 739.85 400.78 751.00 394.00 Z"/>
</g>
<g fill="None" fill-opacity="0.0" stroke="#373A8B" stroke-opacity="1.00" stroke-width="0.3"><path d="
M 157.00 736.00 
C 157.00 740.00 157.00 744.00 157.00 748.00
C 151.44 787.61 199.49 804.45 227.31 788.31 C 255.12 772.16 272.80 754.26 291.75 728.75 C 310.70 703.24 322.24 675.98 333.07 646.07 C 343.90 616.17 352.79 581.33 360.00 550.00
C 368.13 566.04 362.10 585.50 362.00 603.00 C 361.90 620.50 356.07 636.74 355.00 654.00 C 353.93 671.26 347.68 689.30 352.01 706.99 C 356.34 724.69 376.29 706.25 383.08 696.08 C 389.87 685.91 401.81 674.92 408.70 663.70 C 415.58 652.47 424.32 639.90 431.08 628.08 C 437.83 616.25 444.47 602.26 452.00 591.00
C 450.86 598.84 447.41 608.49 445.98 615.98 C 444.54 623.46 440.25 633.09 440.00 640.00 C 439.75 646.91 434.52 661.68 439.78 666.22 C 445.04 670.76 453.50 658.00 457.08 654.08 C 460.67 650.16 465.79 641.54 469.70 636.70 C 473.60 631.85 478.10 624.20 482.00 619.00
C 484.03 627.70 474.01 648.85 483.25 656.75 C 492.50 664.64 502.60 648.25 508.75 641.75 C 514.91 635.25 522.81 624.33 528.75 616.75 C 534.68 609.16 541.07 598.57 547.00 591.00
C 543.04 598.20 549.00 617.50 560.25 605.25 C 571.50 593.00 581.71 578.57 589.00 564.00
C 593.64 566.69 598.25 565.10 601.75 560.75 C 605.26 556.41 610.35 559.20 614.00 555.00
C 612.79 551.99 609.24 556.92 608.00 554.00
C 610.81 545.47 616.74 537.95 618.00 529.00
C 611.89 530.90 610.62 540.46 606.77 545.77 C 602.92 551.08 600.15 557.35 594.00 561.00
C 593.38 550.52 601.20 543.26 603.70 533.69 C 606.19 524.13 613.26 519.30 615.02 509.03 C 616.78 498.75 604.01 510.20 602.31 518.31 C 600.60 526.41 593.08 535.00 591.99 543.99 C 590.90 552.98 585.50 560.98 580.92 568.92 C 576.34 576.85 570.06 582.24 565.92 590.92 C 561.78 599.60 549.05 606.64 551.22 594.22 C 553.40 581.80 556.63 577.35 560.22 567.22 C 563.82 557.10 568.14 551.79 571.23 542.23 C 574.32 532.67 581.08 526.33 581.00 516.00
C 573.52 517.74 571.99 528.60 568.31 535.31 C 564.63 542.01 562.22 549.90 558.92 556.92 C 555.63 563.95 552.56 571.69 548.31 578.31 C 544.05 584.92 541.51 591.36 536.75 597.75 C 532.00 604.15 528.20 609.67 523.25 616.25 C 518.30 622.83 515.10 626.27 509.25 633.25 C 503.39 640.23 502.59 641.65 494.75 649.75 C 486.91 657.85 482.62 645.60 485.02 636.02 C 487.43 626.44 487.55 619.00 490.02 610.02 C 492.50 601.05 494.92 595.14 498.68 586.68 C 502.43 578.22 503.49 573.31 507.07 564.07 C 510.66 554.84 511.09 550.62 514.67 539.67 C 518.25 528.72 509.49 528.41 506.98 538.98 C 504.47 549.54 501.77 553.10 498.98 561.98 C 496.18 570.85 493.47 577.77 490.98 585.98 C 488.49 594.18 486.69 601.68 482.77 608.77 C 478.85 615.86 474.53 621.82 470.25 628.25 C 465.98 634.69 461.87 640.38 457.25 646.25 C 452.62 652.12 448.38 658.48 442.00 662.00
C 444.66 623.95 459.82 589.14 469.00 553.00
C 459.59 557.41 456.03 571.77 450.31 581.31 C 444.58 590.84 440.09 601.74 434.31 611.31 C 428.52 620.87 423.12 631.84 417.25 641.25 C 411.39 650.66 404.68 659.68 398.75 668.75 C 392.83 677.83 384.20 685.35 377.77 693.77 C 371.34 702.19 356.66 717.58 356.00 701.00 C 355.34 684.42 358.03 673.75 360.00 659.00 C 361.97 644.25 363.16 632.88 365.67 618.67 C 368.18 604.46 367.41 589.35 369.00 575.00 C 370.59 560.65 363.46 547.32 364.01 534.01 C 364.56 520.70 369.79 508.80 372.02 496.02 C 374.25 483.25 377.67 469.79 380.22 457.22 C 382.77 444.65 385.53 432.06 389.00 420.00 C 392.48 407.94 391.41 393.75 398.00 383.00
C 400.67 378.64 405.51 375.49 409.00 372.00
C 420.46 359.20 432.64 348.98 443.75 336.75 C 454.85 324.51 465.87 311.96 475.75 298.75 C 485.64 285.55 495.88 272.33 503.70 257.70 C 511.51 243.06 521.53 225.20 525.02 209.02 C 528.52 192.85 536.93 164.57 524.75 150.25 C 512.57 135.92 491.77 155.72 481.75 166.75 C 471.74 177.79 461.32 193.46 453.77 207.77 C 446.22 222.08 436.86 239.12 431.32 255.32 C 425.78 271.52 417.52 288.79 412.98 305.98 C 408.43 323.16 400.00 342.43 397.33 360.33 C 394.65 378.23 385.04 391.97 370.25 402.25 C 355.46 412.53 346.45 424.48 331.75 433.75 C 317.04 443.02 304.32 454.86 287.00 458.00
C 286.52 446.08 297.29 437.86 304.00 430.00
C 294.35 437.04 292.13 438.08 285.93 449.93 C 279.72 461.77 294.82 461.97 302.92 455.92 C 311.03 449.88 319.43 447.94 326.77 441.77 C 334.11 435.60 340.96 432.02 347.92 425.92 C 354.88 419.82 361.98 414.89 368.75 408.75 C 375.52 402.62 381.81 397.40 389.00 392.00
C 379.49 437.06 368.86 481.81 360.00 527.00
C 333.35 491.80 287.33 517.05 261.25 542.25 C 235.17 567.45 212.64 593.80 195.92 625.92 C 179.21 658.05 157.00 697.86 157.00 736.00
M 526.00 170.00 
C 526.43 173.54 526.33 177.55 526.00 181.00
C 526.00 221.25 497.88 260.61 476.08 292.08 C 454.28 323.55 426.04 348.45 399.00 376.00
C 401.28 363.69 405.43 351.76 408.78 339.78 C 412.12 327.79 415.52 315.07 419.33 303.33 C 423.14 291.59 427.29 280.10 431.78 268.78 C 436.27 257.45 439.92 245.90 444.98 234.98 C 450.03 224.05 455.05 214.38 460.92 203.92 C 466.79 193.46 472.32 185.74 479.77 175.77 C 487.22 165.80 493.58 161.21 504.23 153.23 C 514.88 145.25 529.84 154.19 526.00 170.00
M 333.00 514.00 
C 352.52 517.17 360.13 536.75 353.67 553.67 C 347.22 570.60 345.80 590.18 340.01 607.01 C 334.22 623.83 329.14 641.61 322.69 657.69 C 316.25 673.78 310.12 689.01 301.70 703.70 C 293.27 718.38 284.40 730.57 273.25 743.25 C 262.10 755.93 252.54 765.87 238.75 775.75 C 224.97 785.64 204.52 794.10 186.93 788.07 C 169.33 782.05 161.61 765.04 161.00 747.00 C 160.39 728.96 164.86 706.50 171.32 690.32 C 177.78 674.14 184.17 658.03 191.92 642.92 C 199.68 627.82 208.21 615.06 217.25 601.25 C 226.30 587.45 236.52 575.95 247.75 563.75 C 258.99 551.55 269.17 540.92 283.08 532.08 C 297.00 523.24 315.03 511.08 333.00 514.00 Z"/>
</g>
<g fill="None" fill-opacity="0.0" stroke="#FDFDFE" stroke-opacity="1.00" stroke-width="0.3"><path d="
M 681.00 420.00 
C 698.55 413.85 713.21 402.85 730.92 396.92 C 748.64 391.00 762.21 380.85 769.70 363.70 C 777.18 346.55 787.94 334.33 795.70 317.69 C 803.45 301.06 813.07 286.42 819.07 269.07 C 825.08 251.72 833.20 231.87 835.67 213.67 C 838.14 195.47 846.85 168.46 833.75 152.25 C 820.65 136.03 796.41 153.50 783.08 162.08 C 769.76 170.67 755.69 183.38 747.75 198.75 C 739.82 214.13 732.16 232.29 726.78 249.78 C 721.40 267.27 714.03 285.65 708.98 303.98 C 703.93 322.31 698.43 341.98 693.93 360.93 C 689.42 379.87 683.65 400.41 681.00 420.00 Z"/>
</g>
<g fill="None" fill-opacity="0.0" stroke="#FCFCFD" stroke-opacity="1.00" stroke-width="0.3"><path d="
M 526.00 181.00 
C 526.00 177.34 526.07 173.66 526.00 170.00
C 529.84 154.19 514.88 145.25 504.23 153.23 C 493.58 161.21 487.22 165.80 479.77 175.77 C 472.32 185.74 466.79 193.46 460.92 203.92 C 455.05 214.38 450.03 224.05 444.98 234.98 C 439.92 245.90 436.27 257.45 431.78 268.78 C 427.29 280.10 423.14 291.59 419.33 303.33 C 415.52 315.07 412.12 327.79 408.78 339.78 C 405.43 351.76 401.28 363.69 399.00 376.00
C 426.04 348.45 454.28 323.55 476.08 292.08 C 497.88 260.61 526.00 221.25 526.00 181.00 Z"/>
</g>
<g fill="None" fill-opacity="0.0" stroke="#8D8DC6" stroke-opacity="1.00" stroke-width="0.3"><path d="
M 526.00 181.00 
C 526.33 177.55 526.43 173.54 526.00 170.00
C 526.07 173.66 526.00 177.34 526.00 181.00 Z"/>
</g>
<g fill="None" fill-opacity="0.0" stroke="#9596C6" stroke-opacity="1.00" stroke-width="0.3"><path d="
M 398.00 383.00 
C 400.74 379.21 405.82 375.72 409.00 372.00
C 405.51 375.49 400.67 378.64 398.00 383.00 Z"/>
</g>
<g fill="None" fill-opacity="0.0" stroke="#FAFAFC" stroke-opacity="1.00" stroke-width="0.3"><path d="
M 751.00 394.00 
C 739.85 400.78 723.57 403.49 713.08 411.08 C 702.59 418.66 682.89 417.99 678.00 431.00 C 673.10 444.00 673.64 463.79 669.78 477.78 C 665.92 491.76 663.57 509.21 663.00 523.00
C 692.17 479.92 723.04 437.62 751.00 394.00 Z"/>
</g>
<g fill="None" fill-opacity="0.0" stroke="#FDFDFE" stroke-opacity="1.00" stroke-width="0.3"><path d="
M 333.00 514.00 
C 315.03 511.08 297.00 523.24 283.08 532.08 C 269.17 540.92 258.99 551.55 247.75 563.75 C 236.52 575.95 226.30 587.45 217.25 601.25 C 208.21 615.06 199.68 627.82 191.92 642.92 C 184.17 658.03 177.78 674.14 171.32 690.32 C 164.86 706.50 160.39 728.96 161.00 747.00 C 161.61 765.04 169.33 782.05 186.93 788.07 C 204.52 794.10 224.97 785.64 238.75 775.75 C 252.54 765.87 262.10 755.93 273.25 743.25 C 284.40 730.57 293.27 718.38 301.70 703.70 C 310.12 689.01 316.25 673.78 322.69 657.69 C 329.14 641.61 334.22 623.83 340.01 607.01 C 345.80 590.18 347.22 570.60 353.67 553.67 C 360.13 536.75 352.52 517.17 333.00 514.00 Z"/>
</g>
<g fill="None" fill-opacity="0.0" stroke="#8080BE" stroke-opacity="1.00" stroke-width="0.3"><path d="
M 157.00 748.00 
C 157.00 744.00 157.00 740.00 157.00 736.00
C 156.64 739.71 156.63 744.23 157.00 748.00 Z"/>
</g>
<g fill="#FEFEFE" fill-opacity="1.00" stroke="None">
<path d="
M 0.00 924.00 
L 1000.00 924.00
L 1000.00 0.00
L 0.00 0.00
L 0.00 924.00
M 764.00 381.00 
C 788.23 370.91 810.57 356.12 835.00 347.00
C 815.36 360.68 796.11 372.85 773.77 382.77 C 751.43 392.70 742.45 414.82 728.23 434.23 C 714.01 453.64 703.20 472.25 688.08 492.08 C 672.96 511.91 658.08 531.39 657.00 558.00 C 655.92 584.61 646.45 615.52 644.22 642.22 C 641.99 668.93 633.60 697.33 626.07 722.07 C 618.55 746.82 608.94 768.35 598.23 791.23 C 587.51 814.11 581.81 837.88 567.00 858.00
C 565.41 854.79 565.47 850.20 567.00 847.00
C 568.71 858.21 572.94 842.99 575.77 836.77 C 578.60 830.55 581.78 821.57 584.78 814.78 C 587.77 807.98 591.18 800.13 593.92 792.92 C 596.67 785.72 599.98 778.26 602.92 770.92 C 605.87 763.59 608.75 756.24 611.78 748.78 C 614.80 741.31 617.18 733.69 619.98 725.98 C 622.77 718.26 625.96 711.03 627.78 702.78 C 629.59 694.52 632.17 686.31 633.78 677.78 C 635.38 669.24 636.51 659.74 637.99 650.99 C 639.47 642.24 640.74 632.90 641.98 623.98 C 643.21 615.06 644.76 605.87 645.93 596.93 C 647.09 587.98 648.57 578.60 649.78 569.78 C 650.98 560.96 653.10 551.06 652.00 543.00
C 639.53 560.21 629.91 579.63 615.00 595.00
C 626.32 568.79 649.46 553.88 655.99 524.99 C 662.53 496.10 666.86 459.66 673.00 430.00
C 647.64 440.60 621.65 451.51 596.32 462.32 C 570.99 473.13 543.43 483.74 518.31 494.31 C 493.18 504.88 464.71 511.51 448.00 534.00
C 473.46 536.94 495.62 520.03 519.00 513.00
C 508.98 517.66 499.44 525.69 487.92 527.92 C 476.41 530.15 463.97 541.29 451.00 538.00 C 438.03 534.71 453.24 519.27 462.23 515.23 C 471.22 511.19 483.23 503.27 493.68 499.68 C 504.12 496.09 516.25 490.08 527.07 486.07 C 537.89 482.07 548.59 476.79 559.68 472.68 C 570.77 468.56 581.34 462.89 592.69 458.69 C 604.05 454.50 613.84 448.67 625.68 444.68 C 637.51 440.69 644.63 433.94 657.69 430.69 C 670.76 427.45 677.35 417.67 678.33 404.33 C 679.31 390.99 685.08 378.81 687.00 366.00 C 688.91 353.18 694.24 342.27 696.93 329.93 C 699.61 317.58 703.93 305.26 707.32 293.32 C 710.71 281.39 715.07 269.42 718.93 257.93 C 722.79 246.43 726.32 234.75 730.93 223.93 C 735.53 213.10 740.18 202.01 746.30 192.30 C 752.43 182.60 759.95 174.89 768.75 167.75 C 777.55 160.61 786.87 154.99 796.70 149.69 C 806.52 144.40 821.95 137.55 832.08 145.92 C 842.20 154.30 844.07 168.40 844.00 181.00 C 843.93 193.60 840.17 208.73 838.01 221.01 C 835.84 233.28 830.97 245.65 827.22 257.22 C 823.48 268.80 818.23 279.46 813.23 290.23 C 808.23 301.00 803.93 310.95 798.08 321.08 C 792.23 331.21 786.80 341.02 781.08 351.08 C 775.35 361.14 769.51 370.85 764.00 381.00
M 409.00 372.00 
C 405.82 375.72 400.74 379.21 398.00 383.00
C 391.41 393.75 392.48 407.94 389.00 420.00 C 385.53 432.06 382.77 444.65 380.22 457.22 C 377.67 469.79 374.25 483.25 372.02 496.02 C 369.79 508.80 364.56 520.70 364.01 534.01 C 363.46 547.32 370.59 560.65 369.00 575.00 C 367.41 589.35 368.18 604.46 365.67 618.67 C 363.16 632.88 361.97 644.25 360.00 659.00 C 358.03 673.75 355.34 684.42 356.00 701.00 C 356.66 717.58 371.34 702.19 377.77 693.77 C 384.20 685.35 392.83 677.83 398.75 668.75 C 404.68 659.68 411.39 650.66 417.25 641.25 C 423.12 631.84 428.52 620.87 434.31 611.31 C 440.09 601.74 444.58 590.84 450.31 581.31 C 456.03 571.77 459.59 557.41 469.00 553.00
C 459.82 589.14 444.66 623.95 442.00 662.00
C 448.38 658.48 452.62 652.12 457.25 646.25 C 461.87 640.38 465.98 634.69 470.25 628.25 C 474.53 621.82 478.85 615.86 482.77 608.77 C 486.69 601.68 488.49 594.18 490.98 585.98 C 493.47 577.77 496.18 570.85 498.98 561.98 C 501.77 553.10 504.47 549.54 506.98 538.98 C 509.49 528.41 518.25 528.72 514.67 539.67 C 511.09 550.62 510.66 554.84 507.07 564.07 C 503.49 573.31 502.43 578.22 498.68 586.68 C 494.92 595.14 492.50 601.05 490.02 610.02 C 487.55 619.00 487.43 626.44 485.02 636.02 C 482.62 645.60 486.91 657.85 494.75 649.75 C 502.59 641.65 503.39 640.23 509.25 633.25 C 515.10 626.27 518.30 622.83 523.25 616.25 C 528.20 609.67 532.00 604.15 536.75 597.75 C 541.51 591.36 544.05 584.92 548.31 578.31 C 552.56 571.69 555.63 563.95 558.92 556.92 C 562.22 549.90 564.63 542.01 568.31 535.31 C 571.99 528.60 573.52 517.74 581.00 516.00
C 581.08 526.33 574.32 532.67 571.23 542.23 C 568.14 551.79 563.82 557.10 560.22 567.22 C 556.63 577.35 553.40 581.80 551.22 594.22 C 549.05 606.64 561.78 599.60 565.92 590.92 C 570.06 582.24 576.34 576.85 580.92 568.92 C 585.50 560.98 590.90 552.98 591.99 543.99 C 593.08 535.00 600.60 526.41 602.31 518.31 C 604.01 510.20 616.78 498.75 615.02 509.03 C 613.26 519.30 606.19 524.13 603.70 533.69 C 601.20 543.26 593.38 550.52 594.00 561.00
C 600.15 557.35 602.92 551.08 606.77 545.77 C 610.62 540.46 611.89 530.90 618.00 529.00
C 616.74 537.95 610.81 545.47 608.00 554.00
C 609.24 556.92 612.79 551.99 614.00 555.00
C 610.35 559.20 605.26 556.41 601.75 560.75 C 598.25 565.10 593.64 566.69 589.00 564.00
C 581.71 578.57 571.50 593.00 560.25 605.25 C 549.00 617.50 543.04 598.20 547.00 591.00
C 541.07 598.57 534.68 609.16 528.75 616.75 C 522.81 624.33 514.91 635.25 508.75 641.75 C 502.60 648.25 492.50 664.64 483.25 656.75 C 474.01 648.85 484.03 627.70 482.00 619.00
C 478.10 624.20 473.60 631.85 469.70 636.70 C 465.79 641.54 460.67 650.16 457.08 654.08 C 453.50 658.00 445.04 670.76 439.78 666.22 C 434.52 661.68 439.75 646.91 440.00 640.00 C 440.25 633.09 444.54 623.46 445.98 615.98 C 447.41 608.49 450.86 598.84 452.00 591.00
C 444.47 602.26 437.83 616.25 431.08 628.08 C 424.32 639.90 415.58 652.47 408.70 663.70 C 401.81 674.92 389.87 685.91 383.08 696.08 C 376.29 706.25 356.34 724.69 352.01 706.99 C 347.68 689.30 353.93 671.26 355.00 654.00 C 356.07 636.74 361.90 620.50 362.00 603.00 C 362.10 585.50 368.13 566.04 360.00 550.00
C 352.79 581.33 343.90 616.17 333.07 646.07 C 322.24 675.98 310.70 703.24 291.75 728.75 C 272.80 754.26 255.12 772.16 227.31 788.31 C 199.49 804.45 151.44 787.61 157.00 748.00
C 156.63 744.23 156.64 739.71 157.00 736.00
C 157.00 697.86 179.21 658.05 195.92 625.92 C 212.64 593.80 235.17 567.45 261.25 542.25 C 287.33 517.05 333.35 491.80 360.00 527.00
C 368.86 481.81 379.49 437.06 389.00 392.00
C 381.81 397.40 375.52 402.62 368.75 408.75 C 361.98 414.89 354.88 419.82 347.92 425.92 C 340.96 432.02 334.11 435.60 326.77 441.77 C 319.43 447.94 311.03 449.88 302.92 455.92 C 294.82 461.97 279.72 461.77 285.93 449.93 C 292.13 438.08 294.35 437.04 304.00 430.00
C 297.29 437.86 286.52 446.08 287.00 458.00
C 304.32 454.86 317.04 443.02 331.75 433.75 C 346.45 424.48 355.46 412.53 370.25 402.25 C 385.04 391.97 394.65 378.23 397.33 360.33 C 400.00 342.43 408.43 323.16 412.98 305.98 C 417.52 288.79 425.78 271.52 431.32 255.32 C 436.86 239.12 446.22 222.08 453.77 207.77 C 461.32 193.46 471.74 177.79 481.75 166.75 C 491.77 155.72 512.57 135.92 524.75 150.25 C 536.93 164.57 528.52 192.85 525.02 209.02 C 521.53 225.20 511.51 243.06 503.70 257.70 C 495.88 272.33 485.64 285.55 475.75 298.75 C 465.87 311.96 454.85 324.51 443.75 336.75 C 432.64 348.98 420.46 359.20 409.25 371.25 Z"/>
</g>
<g fill="#393C8A" fill-opacity="1.00" stroke="None">
<path d="
M 764.00 381.00 
C 769.51 370.85 775.35 361.14 781.08 351.08 C 786.80 341.02 792.23 331.21 798.08 321.08 C 803.93 310.95 808.23 301.00 813.23 290.23 C 818.23 279.46 823.48 268.80 827.22 257.22 C 830.97 245.65 835.84 233.28 838.01 221.01 C 840.17 208.73 843.93 193.60 844.00 181.00 C 844.07 168.40 842.20 154.30 832.08 145.92 C 821.95 137.55 806.52 144.40 796.70 149.69 C 786.87 154.99 777.55 160.61 768.75 167.75 C 759.95 174.89 752.43 182.60 746.30 192.30 C 740.18 202.01 735.53 213.10 730.93 223.93 C 726.32 234.75 722.79 246.43 718.93 257.93 C 715.07 269.42 710.71 281.39 707.32 293.32 C 703.93 305.26 699.61 317.58 696.93 329.93 C 694.24 342.27 688.91 353.18 687.00 366.00 C 685.08 378.81 679.31 390.99 678.33 404.33 C 677.35 417.67 670.76 427.45 657.69 430.69 C 644.63 433.94 637.51 440.69 625.68 444.68 C 613.84 448.67 604.05 454.50 592.69 458.69 C 581.34 462.89 570.77 468.56 559.68 472.68 C 548.59 476.79 537.89 482.07 527.07 486.07 C 516.25 490.08 504.12 496.09 493.68 499.68 C 483.23 503.27 471.22 511.19 462.23 515.23 C 453.24 519.27 438.03 534.71 451.00 538.00 C 463.97 541.29 476.41 530.15 487.92 527.92 C 499.44 525.69 508.98 517.66 519.00 513.00
C 495.62 520.03 473.46 536.94 448.00 534.00
C 464.71 511.51 493.18 504.88 518.31 494.31 C 543.43 483.74 570.99 473.13 596.32 462.32 C 621.65 451.51 647.64 440.60 673.00 430.00
C 666.86 459.66 662.53 496.10 655.99 524.99 C 649.46 553.88 626.32 568.79 615.00 595.00
C 629.91 579.63 639.53 560.21 652.00 543.00
C 653.10 551.06 650.98 560.96 649.78 569.78 C 648.57 578.60 647.09 587.98 645.93 596.93 C 644.76 605.87 643.21 615.06 641.98 623.98 C 640.74 632.90 639.47 642.24 637.99 650.99 C 636.51 659.74 635.38 669.24 633.78 677.78 C 632.17 686.31 629.59 694.52 627.78 702.78 C 625.96 711.03 622.77 718.26 619.98 725.98 C 617.18 733.69 614.80 741.31 611.78 748.78 C 608.75 756.24 605.87 763.59 602.92 770.92 C 599.98 778.26 596.67 785.72 593.92 792.92 C 591.18 800.13 587.77 807.98 584.78 814.78 C 581.78 821.57 578.60 830.55 575.77 836.77 C 572.94 842.99 568.71 858.21 567.00 847.00
C 565.47 850.20 565.41 854.79 567.00 858.00
C 581.81 837.88 587.51 814.11 598.23 791.23 C 608.94 768.35 618.55 746.82 626.07 722.07 C 633.60 697.33 641.99 668.93 644.22 642.22 C 646.45 615.52 655.92 584.61 657.00 558.00 C 658.08 531.39 672.96 511.91 688.08 492.08 C 703.20 472.25 714.01 453.64 728.23 434.23 C 742.45 414.82 751.43 392.70 773.77 382.77 C 796.11 372.85 815.36 360.68 835.00 347.00
C 810.57 356.12 788.23 370.91 764.00 381.00
M 681.00 420.00 
C 683.65 400.41 689.42 379.87 693.93 360.93 C 698.43 341.98 703.93 322.31 708.98 303.98 C 714.03 285.65 721.40 267.27 726.78 249.78 C 732.16 232.29 739.82 214.13 747.75 198.75 C 755.69 183.38 769.76 170.67 783.08 162.08 C 796.41 153.50 820.65 136.03 833.75 152.25 C 846.85 168.46 838.14 195.47 835.67 213.67 C 833.20 231.87 825.08 251.72 819.07 269.07 C 813.07 286.42 803.45 301.06 795.70 317.69 C 787.94 334.33 777.18 346.55 769.70 363.70 C 762.21 380.85 748.64 391.00 730.92 396.92 C 713.21 402.85 698.55 413.85 681.00 420.00
M 751.00 394.00 
C 723.04 437.62 692.17 479.92 663.00 523.00
C 663.57 509.21 665.92 491.76 669.78 477.78 C 673.64 463.79 673.10 444.00 678.00 431.00 C 682.89 417.99 702.59 418.66 713.08 411.08 C 723.57 403.49 739.85 400.78 751.00 394.00 Z"/>
</g>
<g fill="#373A8B" fill-opacity="1.00" stroke="None">
<path d="
M 157.00 736.00 
C 157.00 740.00 157.00 744.00 157.00 748.00
C 151.44 787.61 199.49 804.45 227.31 788.31 C 255.12 772.16 272.80 754.26 291.75 728.75 C 310.70 703.24 322.24 675.98 333.07 646.07 C 343.90 616.17 352.79 581.33 360.00 550.00
C 368.13 566.04 362.10 585.50 362.00 603.00 C 361.90 620.50 356.07 636.74 355.00 654.00 C 353.93 671.26 347.68 689.30 352.01 706.99 C 356.34 724.69 376.29 706.25 383.08 696.08 C 389.87 685.91 401.81 674.92 408.70 663.70 C 415.58 652.47 424.32 639.90 431.08 628.08 C 437.83 616.25 444.47 602.26 452.00 591.00
C 450.86 598.84 447.41 608.49 445.98 615.98 C 444.54 623.46 440.25 633.09 440.00 640.00 C 439.75 646.91 434.52 661.68 439.78 666.22 C 445.04 670.76 453.50 658.00 457.08 654.08 C 460.67 650.16 465.79 641.54 469.70 636.70 C 473.60 631.85 478.10 624.20 482.00 619.00
C 484.03 627.70 474.01 648.85 483.25 656.75 C 492.50 664.64 502.60 648.25 508.75 641.75 C 514.91 635.25 522.81 624.33 528.75 616.75 C 534.68 609.16 541.07 598.57 547.00 591.00
C 543.04 598.20 549.00 617.50 560.25 605.25 C 571.50 593.00 581.71 578.57 589.00 564.00
C 593.64 566.69 598.25 565.10 601.75 560.75 C 605.26 556.41 610.35 559.20 614.00 555.00
C 612.79 551.99 609.24 556.92 608.00 554.00
C 610.81 545.47 616.74 537.95 618.00 529.00
C 611.89 530.90 610.62 540.46 606.77 545.77 C 602.92 551.08 600.15 557.35 594.00 561.00
C 593.38 550.52 601.20 543.26 603.70 533.69 C 606.19 524.13 613.26 519.30 615.02 509.03 C 616.78 498.75 604.01 510.20 602.31 518.31 C 600.60 526.41 593.08 535.00 591.99 543.99 C 590.90 552.98 585.50 560.98 580.92 568.92 C 576.34 576.85 570.06 582.24 565.92 590.92 C 561.78 599.60 549.05 606.64 551.22 594.22 C 553.40 581.80 556.63 577.35 560.22 567.22 C 563.82 557.10 568.14 551.79 571.23 542.23 C 574.32 532.67 581.08 526.33 581.00 516.00
C 573.52 517.74 571.99 528.60 568.31 535.31 C 564.63 542.01 562.22 549.90 558.92 556.92 C 555.63 563.95 552.56 571.69 548.31 578.31 C 544.05 584.92 541.51 591.36 536.75 597.75 C 532.00 604.15 528.20 609.67 523.25 616.25 C 518.30 622.83 515.10 626.27 509.25 633.25 C 503.39 640.23 502.59 641.65 494.75 649.75 C 486.91 657.85 482.62 645.60 485.02 636.02 C 487.43 626.44 487.55 619.00 490.02 610.02 C 492.50 601.05 494.92 595.14 498.68 586.68 C 502.43 578.22 503.49 573.31 507.07 564.07 C 510.66 554.84 511.09 550.62 514.67 539.67 C 518.25 528.72 509.49 528.41 506.98 538.98 C 504.47 549.54 501.77 553.10 498.98 561.98 C 496.18 570.85 493.47 577.77 490.98 585.98 C 488.49 594.18 486.69 601.68 482.77 608.77 C 478.85 615.86 474.53 621.82 470.25 628.25 C 465.98 634.69 461.87 640.38 457.25 646.25 C 452.62 652.12 448.38 658.48 442.00 662.00
C 444.66 623.95 459.82 589.14 469.00 553.00
C 459.59 557.41 456.03 571.77 450.31 581.31 C 444.58 590.84 440.09 601.74 434.31 611.31 C 428.52 620.87 423.12 631.84 417.25 641.25 C 411.39 650.66 404.68 659.68 398.75 668.75 C 392.83 677.83 384.20 685.35 377.77 693.77 C 371.34 702.19 356.66 717.58 356.00 701.00 C 355.34 684.42 358.03 673.75 360.00 659.00 C 361.97 644.25 363.16 632.88 365.67 618.67 C 368.18 604.46 367.41 589.35 369.00 575.00 C 370.59 560.65 363.46 547.32 364.01 534.01 C 364.56 520.70 369.79 508.80 372.02 496.02 C 374.25 483.25 377.67 469.79 380.22 457.22 C 382.77 444.65 385.53 432.06 389.00 420.00 C 392.48 407.94 391.41 393.75 398.00 383.00
C 400.67 378.64 405.51 375.49 409.00 372.00
C 420.46 359.20 432.64 348.98 443.75 336.75 C 454.85 324.51 465.87 311.96 475.75 298.75 C 485.64 285.55 495.88 272.33 503.70 257.70 C 511.51 243.06 521.53 225.20 525.02 209.02 C 528.52 192.85 536.93 164.57 524.75 150.25 C 512.57 135.92 491.77 155.72 481.75 166.75 C 471.74 177.79 461.32 193.46 453.77 207.77 C 446.22 222.08 436.86 239.12 431.32 255.32 C 425.78 271.52 417.52 288.79 412.98 305.98 C 408.43 323.16 400.00 342.43 397.33 360.33 C 394.65 378.23 385.04 391.97 370.25 402.25 C 355.46 412.53 346.45 424.48 331.75 433.75 C 317.04 443.02 304.32 454.86 287.00 458.00
C 286.52 446.08 297.29 437.86 304.00 430.00
C 294.35 437.04 292.13 438.08 285.93 449.93 C 279.72 461.77 294.82 461.97 302.92 455.92 C 311.03 449.88 319.43 447.94 326.77 441.77 C 334.11 435.60 340.96 432.02 347.92 425.92 C 354.88 419.82 361.98 414.89 368.75 408.75 C 375.52 402.62 381.81 397.40 389.00 392.00
C 379.49 437.06 368.86 481.81 360.00 527.00
C 333.35 491.80 287.33 517.05 261.25 542.25 C 235.17 567.45 212.64 593.80 195.92 625.92 C 179.21 658.05 157.00 697.86 157.00 736.00
M 526.00 170.00 
C 526.43 173.54 526.33 177.55 526.00 181.00
C 526.00 221.25 497.88 260.61 476.08 292.08 C 454.28 323.55 426.04 348.45 399.00 376.00
C 401.28 363.69 405.43 351.76 408.78 339.78 C 412.12 327.79 415.52 315.07 419.33 303.33 C 423.14 291.59 427.29 280.10 431.78 268.78 C 436.27 257.45 439.92 245.90 444.98 234.98 C 450.03 224.05 455.05 214.38 460.92 203.92 C 466.79 193.46 472.32 185.74 479.77 175.77 C 487.22 165.80 493.58 161.21 504.23 153.23 C 514.88 145.25 529.84 154.19 526.00 170.00
M 333.00 514.00 
C 352.52 517.17 360.13 536.75 353.67 553.67 C 347.22 570.60 345.80 590.18 340.01 607.01 C 334.22 623.83 329.14 641.61 322.69 657.69 C 316.25 673.78 310.12 689.01 301.70 703.70 C 293.27 718.38 284.40 730.57 273.25 743.25 C 262.10 755.93 252.54 765.87 238.75 775.75 C 224.97 785.64 204.52 794.10 186.93 788.07 C 169.33 782.05 161.61 765.04 161.00 747.00 C 160.39 728.96 164.86 706.50 171.32 690.32 C 177.78 674.14 184.17 658.03 191.92 642.92 C 199.68 627.82 208.21 615.06 217.25 601.25 C 226.30 587.45 236.52 575.95 247.75 563.75 C 258.99 551.55 269.17 540.92 283.08 532.08 C 297.00 523.24 315.03 511.08 333.00 514.00 Z"/>
</g>
<g fill="#FDFDFE" fill-opacity="1.00" stroke="None">
<path d="
M 681.00 420.00 
C 698.55 413.85 713.21 402.85 730.92 396.92 C 748.64 391.00 762.21 380.85 769.70 363.70 C 777.18 346.55 787.94 334.33 795.70 317.69 C 803.45 301.06 813.07 286.42 819.07 269.07 C 825.08 251.72 833.20 231.87 835.67 213.67 C 838.14 195.47 846.85 168.46 833.75 152.25 C 820.65 136.03 796.41 153.50 783.08 162.08 C 769.76 170.67 755.69 183.38 747.75 198.75 C 739.82 214.13 732.16 232.29 726.78 249.78 C 721.40 267.27 714.03 285.65 708.98 303.98 C 703.93 322.31 698.43 341.98 693.93 360.93 C 689.42 379.87 683.65 400.41 681.00 420.00 Z"/>
</g>
<g fill="#FCFCFD" fill-opacity="1.00" stroke="None">
<path d="
M 526.00 181.00 
C 526.00 177.34 526.07 173.66 526.00 170.00
C 529.84 154.19 514.88 145.25 504.23 153.23 C 493.58 161.21 487.22 165.80 479.77 175.77 C 472.32 185.74 466.79 193.46 460.92 203.92 C 455.05 214.38 450.03 224.05 444.98 234.98 C 439.92 245.90 436.27 257.45 431.78 268.78 C 427.29 280.10 423.14 291.59 419.33 303.33 C 415.52 315.07 412.12 327.79 408.78 339.78 C 405.43 351.76 401.28 363.69 399.00 376.00
C 426.04 348.45 454.28 323.55 476.08 292.08 C 497.88 260.61 526.00 221.25 526.00 181.00 Z"/>
</g>
<g fill="#8D8DC6" fill-opacity="1.00" stroke="None">
<path d="
M 526.00 181.00 
C 526.33 177.55 526.43 173.54 526.00 170.00
C 526.07 173.66 526.00 177.34 526.00 181.00 Z"/>
</g>
<g fill="#9596C6" fill-opacity="1.00" stroke="None">
<path d="
M 398.00 383.00 
C 400.74 379.21 405.82 375.72 409.00 372.00
C 405.51 375.49 400.67 378.64 398.00 383.00 Z"/>
</g>
<g fill="#FAFAFC" fill-opacity="1.00" stroke="None">
<path d="
M 751.00 394.00 
C 739.85 400.78 723.57 403.49 713.08 411.08 C 702.59 418.66 682.89 417.99 678.00 431.00 C 673.10 444.00 673.64 463.79 669.78 477.78 C 665.92 491.76 663.57 509.21 663.00 523.00
C 692.17 479.92 723.04 437.62 751.00 394.00 Z"/>
</g>
<g fill="#FDFDFE" fill-opacity="1.00" stroke="None">
<path d="
M 333.00 514.00 
C 315.03 511.08 297.00 523.24 283.08 532.08 C 269.17 540.92 258.99 551.55 247.75 563.75 C 236.52 575.95 226.30 587.45 217.25 601.25 C 208.21 615.06 199.68 627.82 191.92 642.92 C 184.17 658.03 177.78 674.14 171.32 690.32 C 164.86 706.50 160.39 728.96 161.00 747.00 C 161.61 765.04 169.33 782.05 186.93 788.07 C 204.52 794.10 224.97 785.64 238.75 775.75 C 252.54 765.87 262.10 755.93 273.25 743.25 C 284.40 730.57 293.27 718.38 301.70 703.70 C 310.12 689.01 316.25 673.78 322.69 657.69 C 329.14 641.61 334.22 623.83 340.01 607.01 C 345.80 590.18 347.22 570.60 353.67 553.67 C 360.13 536.75 352.52 517.17 333.00 514.00 Z"/>
</g>
<g fill="#8080BE" fill-opacity="1.00" stroke="None">
<path d="
M 157.00 748.00 
C 157.00 744.00 157.00 740.00 157.00 736.00
C 156.64 739.71 156.63 744.23 157.00 748.00 Z"/>
</g>
</svg>